<svg width="24" height="24" viewBox="0 0 24 25" fill="none" xmlns="http://www.w3.org/2000/svg">
<path d="M10.6955 9.437V10.814H9.6875V12.497H10.6955V17.5H12.7675V12.497H14.1575C14.1575 12.497 14.2885 11.69 14.3515 10.807H12.7755V9.657C12.7755 9.484 13.0015 9.253 13.2255 9.253H14.3535V7.5H12.8185C10.6445 7.5 10.6955 9.185 10.6955 9.437Z" fill="black"/>
<path d="M12 20.5C14.1217 20.5 16.1566 19.6571 17.6569 18.1569C19.1571 16.6566 20 14.6217 20 12.5C20 10.3783 19.1571 8.34344 17.6569 6.84315C16.1566 5.34285 14.1217 4.5 12 4.5C9.87827 4.5 7.84344 5.34285 6.34315 6.84315C4.84285 8.34344 4 10.3783 4 12.5C4 14.6217 4.84285 16.6566 6.34315 18.1569C7.84344 19.6571 9.87827 20.5 12 20.5ZM12 22.5C6.477 22.5 2 18.023 2 12.5C2 6.977 6.477 2.5 12 2.5C17.523 2.5 22 6.977 22 12.5C22 18.023 17.523 22.5 12 22.5Z" fill="black"/>
</svg>
