<svg width="24" height="24" viewBox="0 0 24 25" fill="none" xmlns="http://www.w3.org/2000/svg">
<g clip-path="url(#clip0_1_60794)">
<path d="M18.6667 3C19.5507 3 20.3986 3.35119 21.0237 3.97631C21.6488 4.60143 22 5.44928 22 6.33333V19.6667C22 20.5507 21.6488 21.3986 21.0237 22.0237C20.3986 22.6488 19.5507 23 18.6667 23H5.33333C4.44928 23 3.60143 22.6488 2.97631 22.0237C2.35119 21.3986 2 20.5507 2 19.6667V6.33333C2 5.44928 2.35119 4.60143 2.97631 3.97631C3.60143 3.35119 4.44928 3 5.33333 3H18.6667ZM18.6667 5.22222H5.33333C5.03865 5.22222 4.75603 5.33929 4.54766 5.54766C4.33929 5.75603 4.22222 6.03865 4.22222 6.33333V19.6667C4.22222 19.9614 4.33929 20.244 4.54766 20.4523C4.75603 20.6607 5.03865 20.7778 5.33333 20.7778H18.6667C18.9614 20.7778 19.244 20.6607 19.4523 20.4523C19.6607 20.244 19.7778 19.9614 19.7778 19.6667V6.33333C19.7778 6.03865 19.6607 5.75603 19.4523 5.54766C19.244 5.33929 18.9614 5.22222 18.6667 5.22222ZM7.55556 10.7778C7.8277 10.7778 8.09038 10.8777 8.29375 11.0586C8.49712 11.2394 8.62705 11.4886 8.65889 11.7589L8.66667 11.8889V17.4444C8.66635 17.7276 8.55791 18 8.3635 18.206C8.16909 18.4119 7.90339 18.5358 7.62067 18.5524C7.33796 18.569 7.05958 18.477 6.84241 18.2953C6.62524 18.1135 6.48567 17.8557 6.45222 17.5744L6.44444 17.4444V11.8889C6.44444 11.5942 6.56151 11.3116 6.76988 11.1032C6.97826 10.8948 7.26087 10.7778 7.55556 10.7778ZM10.8889 9.66667C11.1491 9.66663 11.4011 9.75792 11.6009 9.92463C11.8007 10.0913 11.9356 10.3229 11.9822 10.5789C12.2058 10.4492 12.437 10.3331 12.6744 10.2311C13.4156 9.91445 14.5256 9.74 15.5278 10.0544C16.0533 10.2211 16.5811 10.5322 16.9722 11.0622C17.3222 11.5344 17.5111 12.1089 17.5489 12.7544L17.5556 13V17.4444C17.5552 17.7276 17.4468 18 17.2524 18.206C17.058 18.4119 16.7923 18.5358 16.5096 18.5524C16.2268 18.569 15.9485 18.477 15.7313 18.2953C15.5141 18.1135 15.3746 17.8557 15.3411 17.5744L15.3333 17.4444V13C15.3333 12.6333 15.2444 12.4622 15.1867 12.3833C15.1037 12.2802 14.9895 12.2068 14.8611 12.1744C14.4744 12.0522 13.9178 12.1167 13.5478 12.2744C12.9922 12.5122 12.4833 12.8856 12.1367 13.2311L12 13.3778V17.4444C11.9997 17.7276 11.8912 18 11.6968 18.206C11.5024 18.4119 11.2367 18.5358 10.954 18.5524C10.6713 18.569 10.3929 18.477 10.1757 18.2953C9.95857 18.1135 9.819 17.8557 9.78556 17.5744L9.77778 17.4444V10.7778C9.77778 10.4831 9.89484 10.2005 10.1032 9.9921C10.3116 9.78373 10.5942 9.66667 10.8889 9.66667ZM7.55556 7.44444C7.85024 7.44444 8.13286 7.56151 8.34123 7.76988C8.5496 7.97826 8.66667 8.26087 8.66667 8.55556C8.66667 8.85024 8.5496 9.13286 8.34123 9.34123C8.13286 9.5496 7.85024 9.66667 7.55556 9.66667C7.26087 9.66667 6.97826 9.5496 6.76988 9.34123C6.56151 9.13286 6.44444 8.85024 6.44444 8.55556C6.44444 8.26087 6.56151 7.97826 6.76988 7.76988C6.97826 7.56151 7.26087 7.44444 7.55556 7.44444Z" fill="black"/>
</g>
<defs>
<clipPath id="clip0_1_60794">
<rect width="24" height="24" fill="white" transform="translate(0 0.5)"/>
</clipPath>
</defs>
</svg>
