<svg width="32" height="32" viewBox="0 0 32 32" fill="none" xmlns="http://www.w3.org/2000/svg">
<path fill-rule="evenodd" clip-rule="evenodd" d="M6.66667 5C4.08444 5 2 7.08634 2 9.67091V22.3291C2 24.9137 4.08444 27 6.66667 27H25.3333C27.9156 27 30 24.9137 30 22.3291V9.67091C30 7.08634 27.9 5 25.3333 5H6.66667ZM27.9778 11.145L21.2154 16.245L25.214 19.2563C25.6602 19.5923 25.7498 20.2268 25.414 20.6734C25.0783 21.1201 24.4444 21.2097 23.9982 20.8737L19.5348 17.5124L19.2612 17.7187C17.2384 19.2443 14.4506 19.2443 12.4277 17.7187L12.1541 17.5124L7.69077 20.8737C7.24455 21.2097 6.61064 21.1201 6.27491 20.6734C5.93917 20.2268 6.02874 19.5923 6.47496 19.2563L10.4736 16.245L4.02222 11.3796V22.3291C4.02222 23.7926 5.20444 24.9759 6.66667 24.9759H25.3333C26.7956 24.9759 27.9778 23.7926 27.9778 22.3291V11.145ZM25.3333 7.02406C26.4673 7.02406 27.4328 7.7357 27.8092 8.73781L18.0443 16.1022C16.7419 17.0844 14.947 17.0844 13.6446 16.1022L4.12828 8.92529C4.44939 7.82563 5.46319 7.02406 6.66667 7.02406H25.3333Z" fill="black"/>
</svg>
