<svg width="32" height="32" viewBox="0 0 32 32" fill="none" xmlns="http://www.w3.org/2000/svg">
<g clip-path="url(#clip0_1_60732)">
<path fill-rule="evenodd" clip-rule="evenodd" d="M5.04169 7.40938C5.10886 6.00327 5.94616 4.89167 6.94488 4.17975L8.76606 2.88155C10.0873 1.9397 11.9219 2.24693 12.8643 3.56786L15.005 6.56873C15.9476 7.89 15.6406 9.72522 14.3194 10.6678L12.7938 11.7561C12.7905 11.7585 12.7879 11.7607 12.7858 11.7627C13.0874 12.6977 13.804 14.5552 15.2221 16.5431C16.6402 18.531 18.1634 19.8131 18.9494 20.4025C18.9519 20.4012 18.9549 20.3995 18.9582 20.3971L20.4837 19.3088C21.805 18.3662 23.6402 18.6732 24.5828 19.9945L26.7805 23.0751C27.7233 24.3967 27.4159 26.2324 26.0939 27.1748L24.3374 28.4268C23.2946 29.1702 21.9119 29.5936 20.5232 29.1576C18.1183 28.4026 13.7521 26.2879 9.60048 20.4683C5.42861 14.6203 4.924 9.87287 5.04169 7.40938ZM8.08209 5.77509C7.41526 6.25043 7.02905 6.86591 6.99862 7.50287C6.90075 9.5518 7.29312 13.8605 11.1954 19.3305C15.0799 24.7757 19.0784 26.6505 21.1101 27.2884C21.7561 27.4912 22.5065 27.326 23.2002 26.8315L24.9567 25.5794C25.3973 25.2653 25.4998 24.6534 25.1855 24.2129L22.9879 21.1323C22.6737 20.6919 22.062 20.5895 21.6215 20.9037L20.096 21.992C19.4342 22.4641 18.5069 22.5176 17.7948 21.9855C16.9036 21.3196 15.2061 19.8943 13.6272 17.6809C12.0482 15.4675 11.2529 13.3986 10.9133 12.3392C10.6419 11.4928 10.9942 10.6333 11.656 10.1612L13.1816 9.07289C13.622 8.75869 13.7243 8.14695 13.4101 7.70653L11.2693 4.70566C10.9552 4.26535 10.3437 4.16294 9.90327 4.47689L8.08209 5.77509Z" fill="black"/>
</g>
<defs>
<clipPath id="clip0_1_60732">
<rect width="32" height="32" fill="white"/>
</clipPath>
</defs>
</svg>
