<svg width="32" height="32" viewBox="0 0 32 32" fill="none" xmlns="http://www.w3.org/2000/svg">
<path fill-rule="evenodd" clip-rule="evenodd" d="M9.43129 12.9213C9.43129 9.33717 12.3718 6.43165 15.9991 6.43165C19.6264 6.43165 22.567 9.33717 22.567 12.9213C22.567 16.5054 19.6264 19.411 15.9991 19.411C12.3718 19.411 9.43129 16.5054 9.43129 12.9213ZM15.9991 8.46455C13.5081 8.46455 11.4887 10.4599 11.4887 12.9213C11.4887 15.3827 13.5081 17.3781 15.9991 17.3781C18.4902 17.3781 20.5096 15.3827 20.5096 12.9213C20.5096 10.4599 18.4902 8.46455 15.9991 8.46455Z" fill="black"/>
<path fill-rule="evenodd" clip-rule="evenodd" d="M15.4034 2.02173C20.5826 1.71267 26.0838 4.69557 26.9012 11.3061C26.9588 11.7716 26.9935 12.2045 26.9991 12.5943C27.0289 14.6997 26.3516 16.8299 25.3829 18.7986C24.4106 20.7743 23.1148 22.6477 21.8341 24.2573C20.5511 25.8698 19.2674 27.2374 18.3054 28.2013C17.7782 28.7296 17.2439 29.2523 16.6821 29.7449C16.2927 30.0857 15.7061 30.0847 15.3167 29.7439C15.317 29.7442 15.3873 29.6668 15.3167 29.7439C14.7562 29.2507 14.2214 28.7292 13.6945 28.2013C12.7325 27.2374 11.4489 25.8698 10.1659 24.2573C8.8852 22.6477 7.58934 20.7743 6.61713 18.7986C5.64837 16.8299 4.97111 14.6997 5.00095 12.5943C5.09521 5.94289 10.2267 2.33063 15.4034 2.02173ZM16 27.5943C15.7666 27.3728 15.482 27.0971 15.1595 26.774C14.2353 25.8479 13.0063 24.538 11.7833 23.0009C10.558 21.4609 9.35459 19.7125 8.46739 17.9096C7.57673 16.0997 7.03445 14.2944 7.05814 12.6228C7.13423 7.25359 11.1903 4.30973 15.5274 4.05093C19.862 3.79228 24.2009 6.2301 24.859 11.5526C24.9106 11.9695 24.9377 12.3264 24.9419 12.6228C24.9655 14.2944 24.4233 16.0997 23.5326 17.9096C22.6454 19.7125 21.4419 21.4609 20.2167 23.0009C18.9936 24.538 17.7646 25.8479 16.8404 26.774C16.5179 27.0971 16.2333 27.3728 16 27.5943Z" fill="black"/>
</svg>
